<svg id="Layer_1" enable-background="new 0 0 128 128" height="512" viewBox="0 0 128 128" width="512" xmlns="http://www.w3.org/2000/svg"><path d="m102.7 44.4c-.7 0-1.3-.4-1.6-1-2.9-6-1.1-13.3 4.2-17.3 2.8-2.1 4.3-5.4 4.1-8.8s-1.9-5.8-2.7-6.3-1-1.6-.5-2.4 1.6-1 2.4-.5c1.9 1.2 4.1 4.8 4.3 9.1.3 4.6-1.7 9-5.4 11.7-4.1 3-5.4 8.5-3.3 13.1.4.9.1 1.9-.8 2.4-.2 0-.4 0-.7 0z" fill="#fd852b"/><path d="m91.3 15.1h6.3v6.3h-6.3z" fill="#2ec3fc" transform="matrix(.388 -.922 .922 .388 40.924 98.245)"/><ellipse cx="103.8" cy="60.2" fill="#f9d12f" rx="3.7" ry="3.7" transform="matrix(.926 -.378 .378 .926 -15.033 43.644)"/><path d="m25.3 67.4c-1 0-1.8-.8-1.7-1.8 0-.3.1-.5.2-.8 2.1-4.6.7-10-3.3-13.1-3.6-2.8-5.7-7.2-5.4-11.7.3-4.3 2.4-7.9 4.3-9.1.8-.5 1.9-.2 2.4.6s.3 1.9-.5 2.4-2.5 3-2.7 6.3c-.2 3.4 1.3 6.7 4.1 8.8 5.3 4.1 7 11.3 4.2 17.3-.3.7-.9 1.1-1.6 1.1z" fill="#fd852b"/><path d="m30.4 38.1h6.3v6.3h-6.3z" fill="#2ec3fc" transform="matrix(.922 -.388 .388 .922 -13.371 16.251)"/><ellipse cx="24.2" cy="83.1" fill="#f9d12f" rx="3.7" ry="3.7" transform="matrix(.378 -.926 .926 .378 -61.916 74.122)"/><path d="m64.6 18.8s-33.9 88.7-33.9 89.5c0 5.6 15.2 10.2 33.9 10.2s33.9-4.6 33.9-10.2c0-.8-33.9-89.5-33.9-89.5z" fill="#fd748c"/><path d="m64.6 104.8c13.4 0 25-2.3 30.5-5.7-1-2.7-2.2-5.9-3.6-9.5-6.2 2.4-16 4-27 4s-20.8-1.6-27-4c-1.3 3.6-2.6 6.8-3.6 9.5 5.6 3.4 17.2 5.7 30.7 5.7z" fill="#2ec3fc"/><path d="m62 67-4.7-9.6-4.7 9.6-6.8 1-1.2 3 5 4.9-1.8 10.5 9.4-5 9.4 5-1.8-10.5 7.6-7.4z" fill="#f9d12f"/><path d="m72.6 39.7-1.4 2.8-9.5 1.4 6.9 6.7-1.7 9.4 8.5-4.4 4 2.1c-2.4-6.3-4.8-12.5-6.8-18z" fill="#f9d12f"/><circle cx="64.6" cy="24.8" fill="#1ba4fc" r="7.6"/></svg>